<svg width="354" height="581" viewBox="0 0 354 581" fill="none" xmlns="http://www.w3.org/2000/svg">
<g clip-path="url(#clip0_3_22)">
<path d="M204.414 62.2434L176.837 34.6662L35.6999 175.803L63.2771 203.38L204.414 62.2434Z" fill="black" stroke="#FFFEFE" stroke-width="3"/>
<path d="M70.5 1.5H38.5C36.567 1.5 35 3.067 35 5V576C35 577.933 36.567 579.5 38.5 579.5H70.5C72.433 579.5 74 577.933 74 576V5C74 3.067 72.433 1.5 70.5 1.5Z" fill="black" stroke="#FFFEFE" stroke-width="3"/>
<path d="M352 70V38C352 36.067 350.433 34.5 348.5 34.5L5.5 34.5C3.56702 34.5 2 36.067 2 38V70C2 71.933 3.56702 73.5 5.5 73.5L348.5 73.5C350.433 73.5 352 71.933 352 70Z" fill="black" stroke="#FFFEFE" stroke-width="3"/>
<path d="M308.5 75H298.5V149H308.5V75Z" fill="black"/>
<g clip-path="url(#clip1_3_22)">
<path d="M303.5 247.5C330.01 247.5 351.5 226.01 351.5 199.5C351.5 172.99 330.01 151.5 303.5 151.5C276.99 151.5 255.5 172.99 255.5 199.5C255.5 226.01 276.99 247.5 303.5 247.5Z" fill="white" stroke="#909090" stroke-width="5"/>
</g>
</g>
<defs>
<clipPath id="clip0_3_22">
<rect width="353" height="581" fill="white" transform="translate(0.5)"/>
</clipPath>
<clipPath id="clip1_3_22">
<rect width="101" height="101" fill="white" transform="translate(253 149)"/>
</clipPath>
</defs>
</svg>
