<svg width="393" height="581" viewBox="0 0 393 581" fill="none" xmlns="http://www.w3.org/2000/svg">
<g clip-path="url(#clip0_3_25)">
<path d="M203.337 62.2434L175.837 34.6662L35.1002 175.803L62.5992 203.38L203.337 62.2434Z" fill="black" stroke="#FFFEFE" stroke-width="3"/>
<path d="M69.8017 1.5H37.8924C35.9648 1.5 34.4023 3.067 34.4023 5V576C34.4023 577.933 35.9648 579.5 37.8924 579.5H69.8017C71.7292 579.5 73.2918 577.933 73.2918 576V5C73.2918 3.067 71.7292 1.5 69.8017 1.5Z" fill="black" stroke="#FFFEFE" stroke-width="3"/>
<path d="M350.504 70V38C350.504 36.067 348.942 34.5 347.014 34.5L4.98584 34.5C3.05832 34.5 1.49576 36.067 1.49576 38V70C1.49576 71.933 3.05832 73.5 4.98584 73.5L347.014 73.5C348.942 73.5 350.504 71.933 350.504 70Z" fill="black" stroke="#FFFEFE" stroke-width="3"/>
<path d="M307.127 75H297.156V149H307.127V75Z" fill="black"/>
<g clip-path="url(#clip1_3_25)">
<path d="M302.142 247.5C328.576 247.5 350.006 226.01 350.006 199.5C350.006 172.99 328.576 151.5 302.142 151.5C275.707 151.5 254.278 172.99 254.278 199.5C254.278 226.01 275.707 247.5 302.142 247.5Z" fill="white" stroke="#909090" stroke-width="5"/>
</g>
<g clip-path="url(#clip2_3_25)">
<path d="M306.629 250H301.643V381H306.629V250Z" fill="#909090"/>
</g>
<path d="M307.274 265.19L303.434 262L239.819 339.007L243.658 342.197L307.274 265.19Z" fill="#909090"/>
<path d="M305.992 262L302.142 265.19L365.931 342.202L369.782 339.012L305.992 262Z" fill="#909090"/>
</g>
<defs>
<clipPath id="clip0_3_25">
<rect width="393" height="581" fill="white"/>
</clipPath>
<clipPath id="clip1_3_25">
<rect width="100.714" height="101" fill="white" transform="translate(251.785 149)"/>
</clipPath>
<clipPath id="clip2_3_25">
<rect width="4.98584" height="131" fill="white" transform="translate(301.643 250)"/>
</clipPath>
</defs>
</svg>
